<mxfile host="app.diagrams.net" modified="2024-04-20T21:34:00.115Z" agent="Mozilla/5.0 (Windows NT 10.0; Win64; x64) AppleWebKit/537.36 (KHTML, like Gecko) Chrome/123.0.0.0 Safari/537.36" etag="SsCbDwry1Zhs-ovlKHYm" version="24.2.5" type="github">
  <diagram name="Page-1" id="T2ltymCi6m0c4swGiy2a">
    <mxGraphModel dx="1947" dy="476" grid="1" gridSize="10" guides="1" tooltips="1" connect="1" arrows="1" fold="1" page="1" pageScale="1" pageWidth="827" pageHeight="1169" math="0" shadow="0">
      <root>
        <mxCell id="0" />
        <mxCell id="1" parent="0" />
        <mxCell id="VaxM6bgHPkGu4oKI96p7-3" value="" style="rounded=0;whiteSpace=wrap;html=1;" vertex="1" parent="1">
          <mxGeometry x="-160" y="40" width="630" height="630" as="geometry" />
        </mxCell>
        <mxCell id="VaxM6bgHPkGu4oKI96p7-4" value="Customer" style="shape=umlActor;verticalLabelPosition=bottom;verticalAlign=top;html=1;outlineConnect=0;" vertex="1" parent="1">
          <mxGeometry x="-340" y="200" width="30" height="60" as="geometry" />
        </mxCell>
        <mxCell id="VaxM6bgHPkGu4oKI96p7-7" value="Car rental use case" style="text;html=1;align=center;verticalAlign=middle;whiteSpace=wrap;rounded=0;" vertex="1" parent="1">
          <mxGeometry x="100" y="50" width="130" height="30" as="geometry" />
        </mxCell>
        <mxCell id="VaxM6bgHPkGu4oKI96p7-13" value="sign up" style="ellipse;whiteSpace=wrap;html=1;" vertex="1" parent="1">
          <mxGeometry x="-50" y="150" width="90" height="50" as="geometry" />
        </mxCell>
        <mxCell id="VaxM6bgHPkGu4oKI96p7-15" value="" style="endArrow=classic;html=1;rounded=0;entryX=0;entryY=0.5;entryDx=0;entryDy=0;" edge="1" parent="1" source="VaxM6bgHPkGu4oKI96p7-4" target="VaxM6bgHPkGu4oKI96p7-13">
          <mxGeometry width="50" height="50" relative="1" as="geometry">
            <mxPoint x="110" y="220" as="sourcePoint" />
            <mxPoint x="160" y="170" as="targetPoint" />
          </mxGeometry>
        </mxCell>
        <mxCell id="VaxM6bgHPkGu4oKI96p7-16" value="&amp;lt;&amp;lt;include&amp;gt;&amp;gt;" style="endArrow=open;endSize=12;dashed=1;html=1;rounded=0;entryX=0.5;entryY=1;entryDx=0;entryDy=0;exitX=0.5;exitY=0;exitDx=0;exitDy=0;" edge="1" parent="1" source="VaxM6bgHPkGu4oKI96p7-13" target="VaxM6bgHPkGu4oKI96p7-17">
          <mxGeometry width="160" relative="1" as="geometry">
            <mxPoint x="50" y="200" as="sourcePoint" />
            <mxPoint x="130" y="180" as="targetPoint" />
          </mxGeometry>
        </mxCell>
        <mxCell id="VaxM6bgHPkGu4oKI96p7-17" value="customer data" style="ellipse;whiteSpace=wrap;html=1;" vertex="1" parent="1">
          <mxGeometry x="-20" y="80" width="120" height="40" as="geometry" />
        </mxCell>
        <mxCell id="VaxM6bgHPkGu4oKI96p7-21" value="" style="endArrow=classic;html=1;rounded=0;" edge="1" parent="1" source="VaxM6bgHPkGu4oKI96p7-4" target="VaxM6bgHPkGu4oKI96p7-22">
          <mxGeometry width="50" height="50" relative="1" as="geometry">
            <mxPoint x="110" y="530" as="sourcePoint" />
            <mxPoint x="160" y="480" as="targetPoint" />
          </mxGeometry>
        </mxCell>
        <mxCell id="VaxM6bgHPkGu4oKI96p7-22" value="Login" style="ellipse;whiteSpace=wrap;html=1;" vertex="1" parent="1">
          <mxGeometry x="175" y="170" width="100" height="40" as="geometry" />
        </mxCell>
        <mxCell id="VaxM6bgHPkGu4oKI96p7-24" value="Email" style="ellipse;whiteSpace=wrap;html=1;" vertex="1" parent="1">
          <mxGeometry x="120" y="100" width="90" height="50" as="geometry" />
        </mxCell>
        <mxCell id="VaxM6bgHPkGu4oKI96p7-25" value="password" style="ellipse;whiteSpace=wrap;html=1;" vertex="1" parent="1">
          <mxGeometry x="230" y="100" width="90" height="50" as="geometry" />
        </mxCell>
        <mxCell id="VaxM6bgHPkGu4oKI96p7-26" value="" style="endArrow=classic;html=1;rounded=0;entryX=0.5;entryY=1;entryDx=0;entryDy=0;" edge="1" parent="1" source="VaxM6bgHPkGu4oKI96p7-22" target="VaxM6bgHPkGu4oKI96p7-24">
          <mxGeometry width="50" height="50" relative="1" as="geometry">
            <mxPoint x="110" y="220" as="sourcePoint" />
            <mxPoint x="160" y="170" as="targetPoint" />
          </mxGeometry>
        </mxCell>
        <mxCell id="VaxM6bgHPkGu4oKI96p7-28" value="" style="endArrow=classic;html=1;rounded=0;entryX=0.422;entryY=1.02;entryDx=0;entryDy=0;entryPerimeter=0;exitX=0.5;exitY=0;exitDx=0;exitDy=0;" edge="1" parent="1" source="VaxM6bgHPkGu4oKI96p7-22" target="VaxM6bgHPkGu4oKI96p7-25">
          <mxGeometry width="50" height="50" relative="1" as="geometry">
            <mxPoint x="240" y="190" as="sourcePoint" />
            <mxPoint x="290" y="140" as="targetPoint" />
          </mxGeometry>
        </mxCell>
        <mxCell id="VaxM6bgHPkGu4oKI96p7-29" value="admin" style="shape=umlActor;verticalLabelPosition=bottom;verticalAlign=top;html=1;outlineConnect=0;" vertex="1" parent="1">
          <mxGeometry x="730" y="170" width="30" height="60" as="geometry" />
        </mxCell>
        <mxCell id="VaxM6bgHPkGu4oKI96p7-31" value="" style="endArrow=classic;html=1;rounded=0;" edge="1" parent="1" source="VaxM6bgHPkGu4oKI96p7-29" target="VaxM6bgHPkGu4oKI96p7-22">
          <mxGeometry width="50" height="50" relative="1" as="geometry">
            <mxPoint x="500" y="260" as="sourcePoint" />
            <mxPoint x="550" y="210" as="targetPoint" />
          </mxGeometry>
        </mxCell>
        <mxCell id="VaxM6bgHPkGu4oKI96p7-34" value="update Acount" style="ellipse;whiteSpace=wrap;html=1;" vertex="1" parent="1">
          <mxGeometry x="-50" y="230" width="90" height="50" as="geometry" />
        </mxCell>
        <mxCell id="VaxM6bgHPkGu4oKI96p7-37" value="" style="endArrow=classic;html=1;rounded=0;entryX=0;entryY=0.5;entryDx=0;entryDy=0;" edge="1" parent="1" source="VaxM6bgHPkGu4oKI96p7-4" target="VaxM6bgHPkGu4oKI96p7-34">
          <mxGeometry width="50" height="50" relative="1" as="geometry">
            <mxPoint x="170" y="330" as="sourcePoint" />
            <mxPoint x="220" y="280" as="targetPoint" />
          </mxGeometry>
        </mxCell>
        <mxCell id="VaxM6bgHPkGu4oKI96p7-40" value="view rental booking" style="ellipse;whiteSpace=wrap;html=1;" vertex="1" parent="1">
          <mxGeometry x="-70" y="390" width="130" height="50" as="geometry" />
        </mxCell>
        <mxCell id="VaxM6bgHPkGu4oKI96p7-41" value="" style="endArrow=classic;html=1;rounded=0;entryX=0;entryY=0.5;entryDx=0;entryDy=0;" edge="1" parent="1" source="VaxM6bgHPkGu4oKI96p7-4" target="VaxM6bgHPkGu4oKI96p7-40">
          <mxGeometry width="50" height="50" relative="1" as="geometry">
            <mxPoint x="170" y="330" as="sourcePoint" />
            <mxPoint x="220" y="280" as="targetPoint" />
          </mxGeometry>
        </mxCell>
        <mxCell id="VaxM6bgHPkGu4oKI96p7-49" value="&#xa;&lt;br style=&quot;forced-color-adjust: none; color: rgb(0, 0, 0); font-family: Helvetica; font-size: 12px; font-style: normal; font-variant-ligatures: normal; font-variant-caps: normal; font-weight: 400; letter-spacing: normal; orphans: 2; text-align: center; text-indent: 0px; text-transform: none; widows: 2; word-spacing: 0px; -webkit-text-stroke-width: 0px; white-space: normal; background-color: rgb(251, 251, 251); text-decoration-thickness: initial; text-decoration-style: initial; text-decoration-color: initial;&quot;&gt;&lt;span style=&quot;forced-color-adjust: none; color: rgb(0, 0, 0); font-family: Helvetica; font-size: 12px; font-style: normal; font-variant-ligatures: normal; font-variant-caps: normal; font-weight: 400; letter-spacing: normal; orphans: 2; text-align: center; text-indent: 0px; text-transform: none; widows: 2; word-spacing: 0px; -webkit-text-stroke-width: 0px; white-space: normal; text-decoration-thickness: initial; text-decoration-style: initial; text-decoration-color: initial; background-color: rgb(251, 251, 251); float: none; display: inline !important;&quot;&gt;Evaluation&lt;/span&gt;&lt;br style=&quot;forced-color-adjust: none; color: rgb(0, 0, 0); font-family: Helvetica; font-size: 12px; font-style: normal; font-variant-ligatures: normal; font-variant-caps: normal; font-weight: 400; letter-spacing: normal; orphans: 2; text-align: center; text-indent: 0px; text-transform: none; widows: 2; word-spacing: 0px; -webkit-text-stroke-width: 0px; white-space: normal; background-color: rgb(251, 251, 251); text-decoration-thickness: initial; text-decoration-style: initial; text-decoration-color: initial;&quot;&gt;&#xa;&#xa;" style="ellipse;whiteSpace=wrap;html=1;" vertex="1" parent="1">
          <mxGeometry x="-60" y="310" width="110" height="40" as="geometry" />
        </mxCell>
        <mxCell id="VaxM6bgHPkGu4oKI96p7-52" value="" style="endArrow=classic;html=1;rounded=0;entryX=0;entryY=0;entryDx=0;entryDy=0;" edge="1" parent="1" source="VaxM6bgHPkGu4oKI96p7-4" target="VaxM6bgHPkGu4oKI96p7-49">
          <mxGeometry width="50" height="50" relative="1" as="geometry">
            <mxPoint x="170" y="340" as="sourcePoint" />
            <mxPoint x="220" y="290" as="targetPoint" />
          </mxGeometry>
        </mxCell>
        <mxCell id="VaxM6bgHPkGu4oKI96p7-53" value="Return vehicle" style="ellipse;whiteSpace=wrap;html=1;" vertex="1" parent="1">
          <mxGeometry x="-60" y="500" width="110" height="40" as="geometry" />
        </mxCell>
        <mxCell id="VaxM6bgHPkGu4oKI96p7-54" value="" style="endArrow=classic;html=1;rounded=0;entryX=0.055;entryY=0.35;entryDx=0;entryDy=0;entryPerimeter=0;" edge="1" parent="1" source="VaxM6bgHPkGu4oKI96p7-4" target="VaxM6bgHPkGu4oKI96p7-53">
          <mxGeometry width="50" height="50" relative="1" as="geometry">
            <mxPoint x="-300" y="251" as="sourcePoint" />
            <mxPoint x="-34" y="446" as="targetPoint" />
          </mxGeometry>
        </mxCell>
        <mxCell id="VaxM6bgHPkGu4oKI96p7-55" value="&amp;lt;&amp;lt;include&amp;gt;&amp;gt;" style="endArrow=open;endSize=12;dashed=1;html=1;rounded=0;entryX=0;entryY=0.5;entryDx=0;entryDy=0;exitX=1;exitY=0.5;exitDx=0;exitDy=0;" edge="1" parent="1" source="VaxM6bgHPkGu4oKI96p7-53" target="VaxM6bgHPkGu4oKI96p7-59">
          <mxGeometry width="160" relative="1" as="geometry">
            <mxPoint x="5" y="160" as="sourcePoint" />
            <mxPoint x="50" y="130" as="targetPoint" />
          </mxGeometry>
        </mxCell>
        <mxCell id="VaxM6bgHPkGu4oKI96p7-56" value="payment" style="ellipse;whiteSpace=wrap;html=1;" vertex="1" parent="1">
          <mxGeometry x="320" y="570" width="60" height="50" as="geometry" />
        </mxCell>
        <mxCell id="VaxM6bgHPkGu4oKI96p7-57" value="manage vehicle" style="ellipse;whiteSpace=wrap;html=1;" vertex="1" parent="1">
          <mxGeometry x="170" y="230" width="100" height="40" as="geometry" />
        </mxCell>
        <mxCell id="VaxM6bgHPkGu4oKI96p7-58" value="manage&amp;nbsp;Rental Booking" style="ellipse;whiteSpace=wrap;html=1;" vertex="1" parent="1">
          <mxGeometry x="152.5" y="290" width="135" height="40" as="geometry" />
        </mxCell>
        <mxCell id="VaxM6bgHPkGu4oKI96p7-59" value="managr Vehicle Returns" style="ellipse;whiteSpace=wrap;html=1;" vertex="1" parent="1">
          <mxGeometry x="170" y="500" width="100" height="40" as="geometry" />
        </mxCell>
        <mxCell id="VaxM6bgHPkGu4oKI96p7-60" value="" style="endArrow=classic;html=1;rounded=0;entryX=1;entryY=0.5;entryDx=0;entryDy=0;" edge="1" parent="1" source="VaxM6bgHPkGu4oKI96p7-29" target="VaxM6bgHPkGu4oKI96p7-58">
          <mxGeometry width="50" height="50" relative="1" as="geometry">
            <mxPoint x="730" y="200" as="sourcePoint" />
            <mxPoint x="285" y="201" as="targetPoint" />
          </mxGeometry>
        </mxCell>
        <mxCell id="VaxM6bgHPkGu4oKI96p7-61" value="" style="endArrow=classic;html=1;rounded=0;entryX=1;entryY=0.5;entryDx=0;entryDy=0;" edge="1" parent="1" source="VaxM6bgHPkGu4oKI96p7-29" target="VaxM6bgHPkGu4oKI96p7-57">
          <mxGeometry width="50" height="50" relative="1" as="geometry">
            <mxPoint x="730" y="200" as="sourcePoint" />
            <mxPoint x="295" y="211" as="targetPoint" />
          </mxGeometry>
        </mxCell>
        <mxCell id="VaxM6bgHPkGu4oKI96p7-62" value="" style="endArrow=classic;html=1;rounded=0;entryX=1;entryY=0.5;entryDx=0;entryDy=0;" edge="1" parent="1" target="VaxM6bgHPkGu4oKI96p7-59">
          <mxGeometry width="50" height="50" relative="1" as="geometry">
            <mxPoint x="730" y="210" as="sourcePoint" />
            <mxPoint x="285" y="360" as="targetPoint" />
          </mxGeometry>
        </mxCell>
        <mxCell id="VaxM6bgHPkGu4oKI96p7-64" value="&amp;lt;&amp;lt;include&amp;gt;&amp;gt;" style="endArrow=open;endSize=12;dashed=1;html=1;rounded=0;entryX=0.5;entryY=0;entryDx=0;entryDy=0;" edge="1" parent="1" source="VaxM6bgHPkGu4oKI96p7-59" target="VaxM6bgHPkGu4oKI96p7-56">
          <mxGeometry width="160" relative="1" as="geometry">
            <mxPoint x="60" y="560" as="sourcePoint" />
            <mxPoint x="180" y="480" as="targetPoint" />
          </mxGeometry>
        </mxCell>
        <mxCell id="VaxM6bgHPkGu4oKI96p7-65" value="Maintenance" style="ellipse;whiteSpace=wrap;html=1;" vertex="1" parent="1">
          <mxGeometry x="157.5" y="340" width="135" height="40" as="geometry" />
        </mxCell>
        <mxCell id="VaxM6bgHPkGu4oKI96p7-66" value="" style="endArrow=classic;html=1;rounded=0;entryX=1;entryY=0.5;entryDx=0;entryDy=0;" edge="1" parent="1" target="VaxM6bgHPkGu4oKI96p7-65">
          <mxGeometry width="50" height="50" relative="1" as="geometry">
            <mxPoint x="730" y="200" as="sourcePoint" />
            <mxPoint x="298" y="320" as="targetPoint" />
          </mxGeometry>
        </mxCell>
        <mxCell id="VaxM6bgHPkGu4oKI96p7-67" value="manage customer" style="ellipse;whiteSpace=wrap;html=1;" vertex="1" parent="1">
          <mxGeometry x="152.5" y="410" width="135" height="40" as="geometry" />
        </mxCell>
        <mxCell id="VaxM6bgHPkGu4oKI96p7-68" value="" style="endArrow=classic;html=1;rounded=0;entryX=1;entryY=0.5;entryDx=0;entryDy=0;" edge="1" parent="1" target="VaxM6bgHPkGu4oKI96p7-67">
          <mxGeometry width="50" height="50" relative="1" as="geometry">
            <mxPoint x="730" y="210" as="sourcePoint" />
            <mxPoint x="303" y="370" as="targetPoint" />
          </mxGeometry>
        </mxCell>
      </root>
    </mxGraphModel>
  </diagram>
</mxfile>
